PathFileType	4	(X/Y/Z)	Patient4_TMGait_0pt5_02_left_26.trc.trc
DataRate	CameraRate	NumFrames	NumMarkers	Units	OrigDataRate	OrigDataStartFrame	OrigNumFrames
78.212290502793	78.212290502793	5	33	mm	78.212290502793	18	       141
Frame#	Time	Sacral			L.Shoulder			Chest			R.Shoulder			Neck			R.ASIS			L.ASIS			R.Thigh.Superior			R.Thigh.Lateral			R.Thigh.Inferior			R.Patella			L.Thigh.Superior			L.Thigh.Lateral			L.Thigh.Inferior			L.Patella			L.Shank.Superior			L.Shank.Lateral			L.Shank.Inferior			R.Shank.Superior			R.Shank.Lateral			R.Shank.Inferior			R.Heel			R.Midfoot.Superior			R.Midfoot.Lateral			R.Toe			L.Heel			L.Midfoot.Lateral			L.Midfoot.Superior			L.Toe			L.Elbow			L.Wrist			R.Elbow			R.Wrist			
		X1	Y1	Z1	X2	Y2	Z2	X3	Y3	Z3	X4	Y4	Z4	X5	Y5	Z5	X6	Y6	Z6	X7	Y7	Z7	X8	Y8	Z8	X9	Y9	Z9	X10	Y10	Z10	X11	Y11	Z11	X12	Y12	Z12	X13	Y13	Z13	X14	Y14	Z14	X15	Y15	Z15	X16	Y16	Z16	X17	Y17	Z17	X18	Y18	Z18	X19	Y19	Z19	X20	Y20	Z20	X21	Y21	Z21	X22	Y22	Z22	X23	Y23	Z23	X24	Y24	Z24	X25	Y25	Z25	X26	Y26	Z26	X27	Y27	Z27	X28	Y28	Z28	X29	Y29	Z29	X30	Y30	Z30	X31	Y31	Z31	X32	Y32	Z32	X33	Y33	Z33	

18	33.427357142857	566.742702393733	1008.059796970298	519.801989177676	713.872435081864	1437.040270443365	323.909857613531	840.833533103932	1364.048570355062	464.750484828327	786.842232241641	1435.830246014225	651.640579013241	738.116180819867	1493.706347896792	474.838867214940	801.575072238960	939.463167712502	606.657634045944	758.322496727681	960.141136185904	334.494179208376	807.574196102274	729.082343359248	580.696640098182	711.997104669519	632.391200754186	647.993542323727	771.275412641134	569.821085336765	564.533365966468	756.965667499099	484.550380181876	570.830734110359	833.886312439104	778.461261491653	364.960100365748	788.064359572675	649.027017981258	288.185945450331	890.345595145272	590.452342258128	351.949889892429	919.617903396221	526.718996855113	347.575924590607	905.521866385862	454.817039823823	337.552980907801	844.124082554019	321.991926963422	286.895123500441	935.408975298511	226.566310240954	342.519986828104	722.350509581492	398.244935178066	578.871824962343	644.068458527705	300.332909853761	640.945659012030	678.153273958740	203.033150767919	576.893032339161	532.957355278199	42.875777206304	543.668183109107	703.671502340445	96.347481287110	583.759994964633	614.000364617848	36.155245463121	621.045767903660	822.333947336780	43.430442894514	615.790637224916	860.674427068544	39.750651973651	382.027362985494	935.114791803211	48.999140632729	302.580049643525	999.217036222436	132.856900507274	321.772582236273	1135.348067406880	114.634943065316	297.965789993099	567.798614442644	1111.867214710878	233.614415975055	558.105379902503	849.849104978395	238.890987602556	893.356134479262	1108.892950624575	760.854735222839	1123.777686934244	1103.111884939994	654.760132176266	
19	33.440142857143	567.877692148833	1007.090925399314	518.620677313896	713.598098221785	1435.722429562133	321.567599128821	840.972424805064	1363.513136472494	462.431644663964	787.002897241431	1435.696902855567	649.154640293348	737.790856685448	1492.860551406733	472.345292432931	802.611463011965	938.884744674242	605.859935216032	759.651004264225	958.978266443234	333.399164497939	807.155534684784	727.951028966177	579.963143505839	710.820313089552	631.781044768276	647.362606725585	769.416115491914	568.843995732029	563.890619048606	754.166383234295	483.494331440520	570.023366988202	835.372818867618	777.296480972524	364.150291195743	788.056802721703	647.355541316642	288.256824833432	890.663822534682	588.910214699287	350.990668911854	919.295196425159	525.251461426531	347.524272884967	905.592234604602	453.289517820770	337.580417297735	844.591776822883	320.287358380192	287.313428909261	936.201331718978	225.348534583335	342.963225236192	718.862573029239	397.396711795913	578.240797564346	639.782182334624	300.211633420065	640.501509071301	672.935473223272	202.574128604482	576.550445712974	526.521660793105	42.837789934603	543.661835182039	697.292067184057	96.305077623836	583.677699523224	607.534849895426	36.117821555821	621.007967837750	815.826102647240	43.437172075879	615.804524043009	861.980303551484	39.272102899588	382.918667295125	936.239234273600	47.961023353207	303.321738076841	1000.660508684875	131.281481013659	322.354251086502	1136.537877745270	112.322105445668	298.425883657000	568.725593743587	1109.765388658776	232.110431624113	561.353510209220	847.602769998836	237.880856968169	896.450408700057	1109.427402247343	756.751316990213	1125.078268089458	1109.568226657262	647.394514327605	
20	33.452928571429	569.199677053115	1005.966298216024	517.186992441089	713.397381957447	1434.180573221845	318.914078593219	841.132562210774	1362.915186487016	459.932019321787	786.990291065641	1435.548649229979	646.411598163616	737.385648376307	1491.879908525965	469.527513908425	803.798131004316	938.229143840350	605.119874705776	761.362219093119	957.621927879284	332.335809320073	806.948366356477	726.714340625119	579.287446809437	709.850131733244	631.044345043813	646.682715113103	767.877377430331	567.742657020721	563.252224603629	751.659732126199	482.274389046432	569.152991234390	837.491744516929	776.063322742329	363.371869972258	788.575759930844	645.569700486042	288.548850478576	891.604082622539	587.325375285153	350.115751114158	919.312824085497	523.342713480360	347.584099027884	905.591573025639	451.164648984719	337.767223678173	843.991788180860	318.481174299117	287.972908760748	935.171602752344	223.383973033417	343.680551983936	715.622207234476	396.417027409598	577.563764650614	635.673919316646	300.024263346118	640.024072228926	667.780488693843	202.026488978051	576.171107928419	520.084376994704	42.761044721819	543.655053903070	690.897909216298	96.245839218768	583.578564059234	601.071218825898	36.054598306779	620.967536748305	809.319273291849	43.432177026007	615.818897010652	859.985016897541	38.921954973929	384.147847085780	933.942909040013	46.532498659502	304.247981939686	999.482512218724	128.571798897146	323.176049347724	1134.813565745010	107.586747281614	298.779439030794	570.013223924609	1107.293901680951	230.274927661222	565.353496685788	845.015891280785	236.447645424638	898.989844769232	1109.942127350579	752.751560205906	1125.661838394393	1115.510989484333	640.170645304216	
21	33.465714285714	570.685509624722	1004.693321858574	515.509419458448	713.309358301009	1432.409918446713	315.953761959042	841.336919876905	1362.239282747790	457.263686748920	786.813358638935	1435.365892264886	643.422396074852	736.934281710991	1490.760228313170	466.387154036147	805.123365771934	937.487107230376	604.421244689931	763.432363618105	956.074138375760	331.316543525685	806.972652194997	725.369484706855	578.670870921020	709.096743365933	630.175052419862	645.940833092090	766.667062140035	566.508458384816	562.601581231817	749.462707421795	480.874237837820	568.211477591770	840.124017134405	774.685298727661	362.663377247960	789.579700387264	643.689346110367	288.997613962907	893.043653877298	585.665453486527	349.426979353847	919.580042150370	521.027106247038	347.838281111606	905.545310439028	448.533413070067	338.135900251477	842.625637081906	316.538349136483	288.763628915420	932.740946295898	220.765275529686	344.640038121117	712.631166372167	395.298670224272	576.828714937318	631.750496265652	299.769023171665	639.506465860821	662.688641099754	201.391944415264	575.749684384606	513.645667609972	42.657864219406	543.648399432081	684.488855462993	96.171133559894	583.456735057300	594.611779786091	35.972485645580	620.925006205815	802.820866664977	43.405167334655	615.838767995410	855.342149977869	38.606551780675	385.530777633534	928.968869661842	44.774253646373	305.255528689931	996.262352778147	124.919658032641	324.240777514372	1130.842300915690	100.867277687481	299.172510119829	571.655879048797	1104.473980138670	228.116823221959	570.068176298614	842.118809548227	234.612811836011	900.990978986762	1110.404211373234	748.902326551424	1125.584697010952	1120.884741341337	633.132959155031	
22	33.478500000000	572.295696942741	1003.295950730754	513.606577158846	713.372519587030	1430.421438171479	312.699491966655	841.608579272458	1361.480724003514	454.442887536289	786.492454733053	1435.144217039542	640.203292791051	736.481190751202	1489.513661190789	462.930780448327	806.564046072961	936.660920413069	603.735277844317	765.810977224854	954.363988412443	330.346646037271	807.242213561466	723.928877619918	578.094425055284	708.577701354347	629.177836499545	645.115076204003	765.793294284548	565.145393661260	561.905083116831	747.602362879708	479.284817077181	567.184378436578	843.125298252651	773.120742149117	362.063592861311	791.016465721683	641.766081777785	289.521777269733	894.849919949316	583.929855171314	349.002198218773	920.022462667784	518.393638565483	348.334346912745	905.494156782105	445.543492677640	338.679724126987	840.827500277810	314.481749606868	289.569823708533	929.376701813254	217.669307995887	345.787628228314	709.894629287732	394.045627346834	576.018674898045	628.020956202568	299.458486421006	638.936849691385	657.665966234898	200.685741762042	575.280551932964	507.207794824322	42.559515853240	543.642471129729	678.072758466261	96.087976666190	583.309758856146	588.161182338367	35.889246626718	620.880131554561	796.340714890122	43.341516709703	615.869526951267	848.805455287120	38.293418209883	386.905000222182	922.140114325775	42.820603640848	306.251586490046	991.621373660803	120.625830383420	325.524007888873	1125.326995007967	92.776426604889	299.709829087175	573.666988573170	1101.334296607487	225.646700599860	575.458799978795	838.948274074521	232.398071283723	902.474563929314	1110.789356075454	745.243429181510	1124.911969356166	1125.622712213844	626.324450083457	
